HIERARCHY
ROOT Hips
{
	OFFSET 0.000000 0.000000 0.000000
	CHANNELS 6 Xposition Yposition Zposition Xrotation Yrotation Zrotation
	JOINT LeftUpLeg_virtual
	{
		OFFSET 0.000000 0.000000 0.000000
		CHANNELS 3 Xrotation Yrotation Zrotation
		JOINT LeftUpLeg
		{
			OFFSET 13.026900 -6.336304 -1.092800
			CHANNELS 3 Xrotation Yrotation Zrotation
			JOINT LeftLeg
			{
				OFFSET 0.524474 -46.096886 9.782700
				CHANNELS 3 Xrotation Yrotation Zrotation
				JOINT LeftFoot
				{
					OFFSET -0.524474 -53.427422 -12.948200
					CHANNELS 3 Xrotation Yrotation Zrotation
					JOINT LeftToeBase
					{
						OFFSET 0.192200 -14.009700 16.364100
						CHANNELS 3 Xrotation Yrotation Zrotation
						JOINT LeftToe_End
						{
							OFFSET -1.784700 -0.561700 9.474800
							CHANNELS 3 Xrotation Yrotation Zrotation
							End Site
							{
								OFFSET 0 0 0
							}
						}
					}
				}
			}
		}
	}
	JOINT RightUpLeg_virtual
	{
		OFFSET 0.000000 0.000000 0.000000
		CHANNELS 3 Xrotation Yrotation Zrotation
		JOINT RightUpLeg
		{
			OFFSET -12.883000 -6.336304 -1.092800
			CHANNELS 3 Xrotation Yrotation Zrotation
			JOINT RightLeg
			{
				OFFSET -0.524587 -46.096825 9.782800
				CHANNELS 3 Xrotation Yrotation Zrotation
				JOINT RightFoot
				{
					OFFSET 0.524587 -53.427383 -12.948300
					CHANNELS 3 Xrotation Yrotation Zrotation
					JOINT RightToeBase
					{
						OFFSET -0.192200 -14.009700 16.364100
						CHANNELS 3 Xrotation Yrotation Zrotation
						JOINT RightToe_End
						{
							OFFSET 1.784700 -0.561700 9.474800
							CHANNELS 3 Xrotation Yrotation Zrotation
							End Site
							{
								OFFSET 0 0 0
							}
						}
					}
				}
			}
		}
	}
	JOINT Spine_virtual
	{
		OFFSET 0.000000 0.000000 0.000000
		CHANNELS 3 Xrotation Yrotation Zrotation
		JOINT Spine
		{
			OFFSET 0.072000 7.257294 -0.789700
			CHANNELS 3 Xrotation Yrotation Zrotation
			JOINT Spine1
			{
				OFFSET 0.000000 12.508769 -0.658067
				CHANNELS 3 Xrotation Yrotation Zrotation
				JOINT Spine1_split
				{
					OFFSET 0.000000 12.508769 -0.658067
					CHANNELS 3 Xrotation Yrotation Zrotation
					JOINT Spine2
					{
						OFFSET 0.000000 12.508769 -0.658067
						CHANNELS 3 Xrotation Yrotation Zrotation
						JOINT Neck_virtual
						{
							OFFSET 0.000000 0.000000 0.000000
							CHANNELS 3 Xrotation Yrotation Zrotation
							JOINT Neck
							{
								OFFSET 0.000000 14.033295 7.520400
								CHANNELS 3 Xrotation Yrotation Zrotation
								JOINT Head
								{
									OFFSET 0.000000 8.198502 5.703100
									CHANNELS 3 Xrotation Yrotation Zrotation
									JOINT HeadTop_End
									{
										OFFSET 0.000000 17.760803 13.332701
										CHANNELS 3 Xrotation Yrotation Zrotation
										End Site
										{
											OFFSET 0 0 0
										}
									}
								}
							}
						}
						JOINT LeftShoulder_virtual
						{
							OFFSET 0.000000 0.000000 0.000000
							CHANNELS 3 Xrotation Yrotation Zrotation
							JOINT LeftShoulder
							{
								OFFSET 6.292450 5.785301 -0.669000
								CHANNELS 3 Xrotation Yrotation Zrotation
								JOINT LeftShoulder_split
								{
									OFFSET 6.292450 5.785301 -0.669000
									CHANNELS 3 Xrotation Yrotation Zrotation
									JOINT LeftArm
									{
										OFFSET 13.907140 -6.093903 1.965100
										CHANNELS 3 Xrotation Yrotation Zrotation
										JOINT LeftForeArm
										{
											OFFSET 34.140198 0.000000 0.000000
											CHANNELS 3 Xrotation Yrotation Zrotation
											JOINT LeftHand
											{
												OFFSET 40.960209 0.000000 0.000000
												CHANNELS 3 Xrotation Yrotation Zrotation
												End Site
												{
													OFFSET 0 0 0
												}
											}
										}
									}
								}
							}
						}
						JOINT RightShoulder_virtual
						{
							OFFSET 0.000000 0.000000 0.000000
							CHANNELS 3 Xrotation Yrotation Zrotation
							JOINT RightShoulder
							{
								OFFSET -6.292450 5.785301 -0.669000
								CHANNELS 3 Xrotation Yrotation Zrotation
								JOINT RightShoulder_split
								{
									OFFSET -6.292450 5.785301 -0.669000
									CHANNELS 3 Xrotation Yrotation Zrotation
									JOINT RightArm
									{
										OFFSET -13.907140 -6.093903 1.965100
										CHANNELS 3 Xrotation Yrotation Zrotation
										JOINT RightForeArm
										{
											OFFSET -34.140198 0.000000 0.000000
											CHANNELS 3 Xrotation Yrotation Zrotation
											JOINT RightHand
											{
												OFFSET -40.960209 0.000000 0.000000
												CHANNELS 3 Xrotation Yrotation Zrotation
												End Site
												{
													OFFSET 0 0 0
												}
											}
										}
									}
								}
							}
						}
					}
				}
			}
		}
	}
}
MOTION
Frames: 9
Frame Time: 0.03333333
-0.330152 111.591644 0.210976 0.000000 0.000000 0.000000 1.528791 -26.772250 1.060899 -29.989045 25.444674 14.720371 26.450546 8.302725 10.317028 -0.259837 0.587484 -12.089461 -0.000064 0.000004 0.000003 0.000000 0.000000 0.000000 1.528791 -26.772250 1.060899 -20.198825 -16.421168 -9.723020 30.324472 -1.758555 -7.092876 -12.106241 -1.740298 10.964347 -0.000029 -0.000005 0.000001 0.000000 0.000000 0.000000 1.528791 -26.772250 1.060899 4.021314 -1.433977 0.368194 1.504780 -0.576876 0.097092 0.000000 0.000000 0.000000 0.000000 0.000000 0.000000 1.507368 -0.569389 0.100619 -2.626397 4.193305 2.853713 16.723303 24.085791 -12.361633 0.000000 0.000000 0.000000 1.507368 -0.569389 0.100619 -0.279654 3.035688 5.768246 0.000000 0.000000 0.000000 -51.680889 -1.342422 -53.222873 -0.000511 -85.775893 -0.000537 0.000000 0.000000 0.000000 1.507368 -0.569389 0.100619 -1.120093 -11.901474 10.263996 0.000000 0.000000 0.000000 -58.262156 66.059500 74.030030 -0.000010 83.625599 -0.000009 0.000000 0.000000 0.000000 
-0.337442 111.583244 0.226318 0.000000 0.000000 0.000000 1.562573 -26.761940 1.088010 -30.041098 25.513796 14.730182 26.473518 8.228697 10.316966 -0.278985 0.588535 -12.070765 -0.000064 0.000004 0.000003 0.000000 0.000000 0.000000 1.562573 -26.761940 1.088010 -20.270229 -16.599455 -9.718475 30.346227 -1.619921 -7.210441 -12.126676 -1.738742 10.966279 -0.000029 -0.000005 0.000001 0.000000 0.000000 0.000000 1.562573 -26.761940 1.088010 3.996823 -1.447942 0.377328 1.495334 -0.584006 0.101199 0.000000 0.000000 0.000000 0.000000 0.000000 0.000000 1.497949 -0.576588 0.104754 -2.617657 4.198874 2.840609 16.741154 24.081480 -12.364069 0.000000 0.000000 0.000000 1.497949 -0.576588 0.104754 -0.281259 3.073341 5.677567 0.000000 0.000000 0.000000 -51.670859 -1.468558 -53.178743 0.002149 -85.685338 0.002180 0.000000 0.000000 0.000000 1.497949 -0.576588 0.104754 -1.122336 -11.917106 10.268324 0.000000 0.000000 0.000000 -58.332001 66.132719 74.039920 0.000653 83.601037 -0.000692 0.000000 0.000000 0.000000 
-0.344192 111.572456 0.241642 0.000000 0.000000 0.000000 1.593710 -26.752336 1.105420 -30.118706 25.624910 14.766596 26.512187 8.106815 10.317218 -0.306480 0.590727 -12.037909 -0.000064 0.000004 0.000003 0.000000 0.000000 0.000000 1.593710 -26.752336 1.105420 -20.339856 -16.788561 -9.705758 30.369258 -1.488061 -7.331623 -12.145773 -1.737662 10.969783 -0.000029 -0.000003 0.000001 0.000000 0.000000 0.000000 1.593710 -26.752336 1.105420 3.974344 -1.465669 0.389801 1.486642 -0.592413 0.106144 0.000000 0.000000 0.000000 0.000000 0.000000 0.000000 1.489284 -0.585019 0.109743 -2.597500 4.205266 2.830450 16.748245 24.084229 -12.349540 0.000000 0.000000 0.000000 1.489284 -0.585019 0.109743 -0.280618 3.096291 5.589870 0.000000 0.000000 0.000000 -51.690609 -1.583851 -53.118870 0.000552 -85.585453 0.000573 0.000000 0.000000 0.000000 1.489284 -0.585019 0.109743 -1.123876 -11.917868 10.255504 0.000000 0.000000 0.000000 -58.375844 66.174691 74.048089 0.001396 83.587787 -0.001363 0.000000 0.000000 0.000000 
-0.350037 111.562347 0.253948 0.000000 0.000000 0.000000 1.612781 -26.763073 1.118249 -30.199654 25.785853 14.823503 26.553346 7.953921 10.317622 -0.337187 0.594240 -11.995673 -0.000064 0.000003 0.000003 0.000000 0.000000 0.000000 1.612781 -26.763073 1.118249 -20.402021 -16.960850 -9.691962 30.393874 -1.357527 -7.445039 -12.160843 -1.736533 10.968383 -0.000029 -0.000003 0.000001 0.000000 0.000000 0.000000 1.612781 -26.763073 1.118249 3.952773 -1.488812 0.406389 1.478282 -0.603043 0.112585 0.000000 0.000000 0.000000 0.000000 0.000000 0.000000 1.480962 -0.595712 0.116256 -2.563260 4.215703 2.818926 16.753672 24.101318 -12.330658 0.000000 0.000000 0.000000 1.480962 -0.595712 0.116256 -0.278180 3.105550 5.508492 0.000000 0.000000 0.000000 -51.749574 -1.681450 -53.045985 0.000988 -85.462271 0.001020 0.000000 0.000000 0.000000 1.480962 -0.595712 0.116256 -1.124841 -11.896557 10.214323 0.000000 0.000000 0.000000 -58.411894 66.194765 74.072855 0.000060 83.568334 -0.000087 0.000000 0.000000 0.000000 
-0.354955 111.554131 0.264423 0.000000 0.000000 0.000000 1.619879 -26.794569 1.133809 -30.258086 25.953370 14.876509 26.586043 7.818089 10.317826 -0.366038 0.597964 -11.958971 -0.000064 0.000003 0.000003 0.000000 0.000000 0.000000 1.619879 -26.794569 1.133809 -20.459804 -17.120170 -9.684804 30.420594 -1.215990 -7.553859 -12.173295 -1.734032 10.960858 -0.000029 -0.000003 0.000001 0.000000 0.000000 0.000000 1.619879 -26.794569 1.133809 3.930266 -1.518689 0.427884 1.469574 -0.616831 0.121216 0.000000 0.000000 0.000000 0.000000 0.000000 0.000000 1.472290 -0.609534 0.124993 -2.515643 4.233239 2.801236 16.766267 24.138163 -12.322952 0.000000 0.000000 0.000000 1.472290 -0.609534 0.124993 -0.274757 3.106066 5.433143 0.000000 0.000000 0.000000 -51.851743 -1.757032 -52.965293 0.000415 -85.308229 0.000424 0.000000 0.000000 0.000000 1.472290 -0.609534 0.124993 -1.125852 -11.846171 10.129922 0.000000 0.000000 0.000000 -58.466098 66.199136 74.137926 -0.000042 83.527128 0.000068 0.000000 0.000000 0.000000 
-0.360702 111.546967 0.276131 0.000000 0.000000 0.000000 1.624808 -26.832354 1.153433 -30.280172 26.052182 14.903000 26.606391 7.760139 10.316582 -0.388485 0.600332 -11.947334 -0.000064 0.000004 0.000003 0.000000 0.000000 0.000000 1.624808 -26.832354 1.153433 -20.522770 -17.302331 -9.679488 30.448782 -1.048824 -7.678566 -12.186581 -1.730158 10.950888 -0.000029 -0.000007 0.000001 0.000000 0.000000 0.000000 1.624808 -26.832354 1.153433 3.905183 -1.555993 0.455811 1.459904 -0.634220 0.132589 0.000000 0.000000 0.000000 0.000000 0.000000 0.000000 1.462662 -0.626999 0.136513 -2.458742 4.259435 2.773511 16.791701 24.195599 -12.339512 0.000000 0.000000 0.000000 1.462662 -0.626999 0.136513 -0.271398 3.105499 5.361074 0.000000 0.000000 0.000000 -51.989952 -1.809215 -52.881824 0.001105 -85.125440 0.001133 0.000000 0.000000 0.000000 1.462662 -0.626999 0.136513 -1.127665 -11.762728 9.989888 0.000000 0.000000 0.000000 -58.566502 66.187839 74.269940 0.000188 83.453929 -0.000204 0.000000 0.000000 0.000000 
-0.369666 111.542061 0.289230 0.000000 0.000000 0.000000 1.627707 -26.869131 1.180339 -30.247250 26.044929 14.882712 26.604384 7.813066 10.315957 -0.397643 0.603643 -11.972545 -0.000064 0.000004 0.000003 0.000000 0.000000 0.000000 1.627707 -26.869131 1.180339 -20.585739 -17.492852 -9.680783 30.476208 -0.875898 -7.809555 -12.201417 -1.725246 10.940910 -0.000029 -0.000005 0.000001 0.000000 0.000000 0.000000 1.627707 -26.869131 1.180339 3.876785 -1.599942 0.490422 1.449007 -0.654891 0.146945 0.000000 0.000000 0.000000 0.000000 0.000000 0.000000 1.451813 -0.647746 0.151044 -2.398555 4.293737 2.733795 16.831997 24.268149 -12.386562 0.000000 0.000000 0.000000 1.451813 -0.647746 0.151044 -0.269111 3.111914 5.288790 0.000000 0.000000 0.000000 -52.143870 -1.840537 -52.797919 0.001510 -84.924182 0.001422 0.000000 0.000000 0.000000 1.451813 -0.647746 0.151044 -1.130642 -11.648118 9.791822 0.000000 0.000000 0.000000 -58.734170 66.157841 74.489729 0.000546 83.344304 -0.000570 0.000000 0.000000 0.000000 
-0.381902 111.543602 0.301121 0.000000 0.000000 0.000000 1.628855 -26.908970 1.218275 -30.161955 25.963934 14.819560 26.570585 7.950606 10.315924 -0.389738 0.607830 -12.025336 -0.000064 0.000005 0.000003 0.000000 0.000000 0.000000 1.628855 -26.908970 1.218275 -20.631799 -17.606684 -9.699747 30.495548 -0.758037 -7.892802 -12.212501 -1.721908 10.930316 -0.000029 -0.000005 0.000001 0.000000 0.000000 0.000000 1.628855 -26.908970 1.218275 3.845560 -1.648287 0.530078 1.437087 -0.677577 0.163863 0.000000 0.000000 0.000000 0.000000 0.000000 0.000000 1.439942 -0.670489 0.168150 -2.340800 4.333191 2.682527 16.886200 24.344049 -12.460926 0.000000 0.000000 0.000000 1.439942 -0.670489 0.168150 -0.268621 3.131117 5.213857 0.000000 0.000000 0.000000 -52.283923 -1.858694 -52.712863 0.000025 -84.719399 0.000070 0.000000 0.000000 0.000000 1.439942 -0.670489 0.168150 -1.134485 -11.511562 9.548555 0.000000 0.000000 0.000000 -58.972304 66.109053 74.799177 -0.000017 83.199750 0.000069 0.000000 0.000000 0.000000 
-0.395275 111.553001 0.311295 0.000000 0.000000 0.000000 1.628522 -26.953535 1.261098 -30.049936 25.866708 14.739173 26.510695 8.113478 10.316386 -0.369699 0.610818 -12.085719 -0.000064 0.000004 0.000003 0.000000 0.000000 0.000000 1.628522 -26.953535 1.261098 -20.643210 -17.578139 -9.738111 30.499322 -0.742383 -7.882312 -12.215436 -1.722685 10.918352 -0.000029 -0.000003 0.000001 0.000000 0.000000 0.000000 1.628522 -26.953535 1.261098 3.813245 -1.696647 0.572310 1.424786 -0.700112 0.181941 0.000000 0.000000 0.000000 0.000000 0.000000 0.000000 1.427705 -0.693044 0.186412 -2.289262 4.372953 2.622794 16.951169 24.408137 -12.550270 0.000000 0.000000 0.000000 1.427705 -0.693044 0.186412 -0.270141 3.164646 5.136341 0.000000 0.000000 0.000000 -52.379618 -1.876424 -52.624712 0.001228 -84.526466 0.001221 0.000000 0.000000 0.000000 1.427705 -0.693044 0.186412 -1.138394 -11.368888 9.288192 0.000000 0.000000 0.000000 -59.259008 66.048237 75.171047 -0.000013 83.028135 -0.000013 0.000000 0.000000 0.000000 
